<svg width="100" height="20" viewBox="0 0 100 20" fill="none" xmlns="http://www.w3.org/2000/svg">
<path d="M10 0L12.755 7.245L20 7.635L14.5 12.755L16.51 20L10 16L3.49 20L5.5 12.755L0 7.635L7.245 7.245L10 0Z" fill="#E39B1D"/>
<path d="M35 0L37.755 7.245L45 7.635L39.5 12.755L41.51 20L35 16L28.49 20L30.5 12.755L25 7.635L32.245 7.245L35 0Z" fill="#E39B1D"/>
<path d="M60 0L62.755 7.245L70 7.635L64.5 12.755L66.51 20L60 16L52.49 20L54.5 12.755L49 7.635L56.245 7.245L60 0Z" fill="#E39B1D"/>
<path d="M85 0L87.755 7.245L95 7.635L89.5 12.755L91.51 20L85 16L77.49 20L79.5 12.755L74 7.635L81.245 7.245L85 0Z" fill="#666C74"/>
</svg>
